<?xml version="1.0" encoding="UTF-8"?>
<svg id="Layer_2" data-name="Layer 2" xmlns="http://www.w3.org/2000/svg" viewBox="0 0 1477.41 405.99">
  <defs>
    <style>
      .cls-1 {
        fill: #c8a469;
      }

      .cls-1, .cls-2, .cls-3, .cls-4, .cls-5 {
        stroke-width: 0px;
      }

      .cls-1, .cls-2, .cls-4, .cls-5 {
        fill-rule: evenodd;
      }

      .cls-6 {
        font-family: MulishRoman-Bold, Mulish;
        font-size: 93.85px;
        font-variation-settings: 'wght' 700;
        font-weight: 700;
      }

      .cls-6, .cls-2, .cls-3 {
        fill: #989da4;
      }

      .cls-7 {
        letter-spacing: .44em;
      }

      .cls-8, .cls-9 {
        letter-spacing: .44em;
      }

      .cls-9 {
        opacity: 0;
      }

      .cls-10 {
        letter-spacing: .44em;
      }

      .cls-4 {
        fill: #a5a6a9;
      }

      .cls-5 {
        fill: #d0a867;
      }

      .cls-11 {
        letter-spacing: .43em;
      }

      .cls-12 {
        fill: none;
        stroke: #a5a6a9;
        stroke-miterlimit: 10;
        stroke-width: 3px;
      }

      .cls-13 {
        letter-spacing: .45em;
      }
    </style>
  </defs>
  <g id="Layer_8" data-name="Layer 8">
    <g>
      <g>
        <g>
          <g>
            <path class="cls-4" d="m386.48,280.22c-29.62,73.86-101.65,125.78-185.74,125.78C89.58,405.99,0,315.68,0,204.53c0-28.52,5.85-55.57,16.09-80.07l182.82-2.92-15.36,20.47-23.03,54.84c31.81,27.79,55.21,13.53,72.03-32.91l29.25-2.19,76.05,73.12h0c19.01,16.45-4.75,36.56-17.55,23.03l-46.07-45.7c-3.29-.73-5.48.73-6.58,3.66l45.7,45.34c5.85,5.48,5.85,14.63.37,20.11h0c-5.48,5.49-14.63,5.85-20.48,0l-45.7-45.34c-.37-.37-1.1-1.1-1.46-1.46h0c-3.66-1.83-6.58,1.46-5.12,4.75l38.76,38.39c5.48,5.48,5.85,14.63,0,20.47h0c-5.48,5.48-14.63,5.48-20.11,0l-24.5-24.13s-4.02-4.02-5.12-5.12v-1.83c.37-5.12-1.1-10.24-4.39-13.89q0-.37-.37-.73c-.37-.73-1.1-1.1-1.83-1.83,0,0-.36,0-.36-.37-2.19-1.83-4.75-3.29-8.04-4.02h0c-4.75-1.1-9.14-.73-13.53,1.1v.37h-.73v.37h-.73v.37h-.73v.36h-.37v.37h-.73v.37h-.36v.37h-.37l-.37.37h-.37v.37h-.37v.36h-.37c0,.37-.37.37-.37.37h0c0,.37-.37.37-.37.73h-.37s0,.37-.37.37h0v.37h-.37q0,.37-.37.37l.73-1.46v-1.1h0q0-.37.37-.37v-.37h0v-.73h0v-1.1h0v-.37h0v-1.1h0v-.37h0v-1.1h0v-1.1h0v-.73h0v-.37h0l-.37-.37v-.37h0v-.73h0l-.37-.37h0v-.73h0v-.37q-.37,0-.37-.36h0c0-.37-.36-.73-.36-1.1h0v-.37h-.37v-.37h0v-.37l-.37-.36h0v-.37h-.37v-.37h0l-.37-.37v-.37h0s-.37,0-.37-.37h0c-.37-.73-1.1-1.46-1.83-2.19h0c0-.37-.37-.37-.37-.37h0q0-.37-.36-.37h0q0-.37-.37-.37h0v-.36h-.37v-.37h-.37v-.36h-.37c-.73-.37-1.46-1.1-2.56-1.83h-.37s0-.37-.37-.37h-.37c0-.36-.36-.36-.36-.36h-.37l-.37-.37h-.73c-.73-.37-1.46-.73-2.19-.73h0c-2.56-.73-4.75-.73-6.95-.73h-.37c-.73,0-1.1.37-1.83.37h0c-.37,0-1.1.37-1.83.37h0c-.37.37-.73.37-1.1.37v.37h-.73c-.37.37-.73.37-.73.37h0l-.37.36h-.73v.37h-.73v.37h-.37l-.36.37h-.37v.37h-.37l-.37.37h-.37v.37h-.37c0,.36-.37.36-.37.36h0l-.37.37h0l-.37.36h-.36v.37h0l-.37.37h-.37v.37h-.37v.36h0l-.37.37h0l-.37.36h0v.37h-.37v.37h0s-.37,0-.37.37h0l-.37.37h0v.37h-.37v.37c0-8.78-6.22-16.82-15.36-19.38-8.41-1.83-16.82,1.46-21.57,8.04,0,0,0-.37-.37-.37h0v-.36h0v-.37h0v-.37h-.37v-.37h0v-.37h0v-.37h-.37v-.37h0v-.36h0l-.37-.37h0v-.37h0l-.37-.37h0v-.37h-.37v-.37h0v-.37h-.37v-.37h0v-.37h-.37v-.36h-.37v-.37h0v-.37h-.36v-.37h-.37v-.37h-.37v-.37h0l-.37-.36h0l-.37-.37h0l-.37-.36h0v-.37h-.37v-.37h-.37v-.37h-.37l-.36-.37h0l-.37-.37h0l-.37-.37h-.37v-.36h-.37l-.37-.37h-.37v-.37h-.37l-.37-.37h-.37l-.37-.37h-.37v-.37h-.73l-.37-.36h-.73v-.37h-.73l-.37-.37h-.73l-.37-.37h-.73c-10.97-2.92-22.67,4.39-25.23,15.36l-4.02,17.92h-28.15c17.55,69.83,89.22,122.48,175.14,122.48,59.96,0,110.79-19.38,142.96-58.86,5.48-6.95,13.53-16.09,21.21-26.32h0Zm-157.96-5.12c-1.46,10.97-4.39,21.21-9.87,29.62l7.68,8.77,5.12,4.75c5.48,5.85,14.63,5.85,20.11,0h0c5.85-5.48,5.48-14.63,0-20.11l-16.45-16.45-6.58-6.58Z"/>
            <path class="cls-5" d="m202.2.14c53.75-2.19,102.74,20.84,138.94,57.41,23.4,23.4,41.68,53.02,51.92,84.83,14.99,44.97,12.07,87.75-3.66,132.36-17.92-18.65-36.2-36.2-54.85-54.11l-69.47-67.28-35.83,2.93c-6.95,12.8-17.55,38.76-31.81,43.87-8.41,3.29-22.3.73-28.89-6.22l19.01-44.97c2.19-4.39,11.33-17.55,15.36-20.84,4.75-4.02,11.33-6.22,20.84-6.58,6.58-.37,13.89,0,20.84,0h89.95c-36.56-49.36-99.45-81.54-161.61-81.54S57.4,74.37,20.84,113.12C55.21,51.7,105.67,4.17,202.2.14Z"/>
          </g>
          <path class="cls-5" d="m177.7,235.61h0c8.41,1.83,13.16,10.6,10.97,19.01l-6.95,25.96c-2.19,8.41-10.97,13.53-19.38,11.34h0c-8.41-1.83-13.16-10.6-10.97-18.65l6.95-26.32c2.19-8.41,10.97-13.53,19.38-11.33Z"/>
          <path class="cls-5" d="m139.67,225.37h0c8.41,1.83,13.53,10.6,11.33,19.01l-6.95,26.32c-2.19,8.77-11.33,13.89-19.74,11.7h0c-8.41-2.19-13.53-10.6-11.34-19.01l7.31-26.69c2.19-8.41,10.97-13.53,19.38-11.34Z"/>
          <path class="cls-5" d="m103.11,216.96h0c8.04,1.83,13.16,10.24,11.34,18.28l-4.39,19.74c-2.19,8.41-10.24,13.16-18.28,11.33h0c-8.04-2.19-13.16-10.6-11.33-18.65l4.75-19.74c1.83-8.04,9.87-13.16,17.92-10.97Z"/>
          <path class="cls-5" d="m212.43,253.52h0c8.04,1.83,12.8,9.87,10.6,17.92l-3.29,12.8-1.46,5.85c-5.12,19.38-34.37,12.07-29.25-6.95l1.1-4.75,3.66-13.89c2.19-8.04,10.6-13.16,18.65-10.97Z"/>
        </g>
        <g>
          <path class="cls-1" d="m626.01,215.97h-70.34l-10.1,33.97h-63.37l75.62-206.12h67.95l75.29,206.12h-65.01l-10.06-33.97h0Zm-13.14-44.62l-21.93-74.08-22.03,74.08h43.96Zm116.59-127.53h81.89l31.19,125.42,31.29-125.42h81.51v206.12h-50.79V92.81l-39.19,157.13h-46.02l-39.1-157.13v157.13h-50.79V43.82h0Zm408.6,121.77l54.44,16.84c-3.65,15.64-9.4,28.74-17.3,39.2-7.85,10.51-17.58,18.42-29.27,23.75-11.65,5.33-26.47,8.01-44.47,8.01-21.89,0-39.7-3.26-53.6-9.74-13.84-6.53-25.77-17.99-35.82-34.35-10.05-16.36-15.1-37.38-15.1-62.9,0-34.06,8.84-60.26,26.52-78.59,17.72-18.28,42.75-27.44,75.11-27.44,25.3,0,45.22,5.23,59.72,15.74,14.45,10.51,25.25,26.63,32.27,48.41l-54.72,12.43c-1.92-6.24-3.93-10.79-6.03-13.67-3.51-4.85-7.76-8.59-12.77-11.18-5.05-2.64-10.66-3.93-16.88-3.93-14.12,0-24.93,5.81-32.41,17.37-5.66,8.59-8.51,22.12-8.51,40.49,0,22.84,3.37,38.43,10.15,46.92,6.78,8.45,16.27,12.67,28.53,12.67s20.86-3.41,26.94-10.27c6.08-6.81,10.47-16.75,13.23-29.75h0Zm217.37,50.38h-70.34l-10.1,33.97h-63.37l75.62-206.12h67.95l75.3,206.12h-65.01l-10.06-33.97h0Zm-13.14-44.62l-21.94-74.08-22.03,74.08h43.96Z"/>
          <g>
            <line class="cls-12" x1="481.93" y1="262.63" x2="1431.93" y2="262.63"/>
            <line class="cls-12" x1="481.93" y1="352.13" x2="1431.93" y2="352.13"/>
            <text class="cls-6" transform="translate(475.52 340.29)"><tspan class="cls-13" x="0" y="0">P</tspan><tspan class="cls-10" x="104.26" y="0">R</tspan><tspan class="cls-13" x="211.43" y="0">OPE</tspan><tspan class="cls-11" x="528.91" y="0">R</tspan><tspan class="cls-9" x="634.67" y="0">T</tspan><tspan class="cls-13" x="734.52" y="0">I</tspan><tspan class="cls-7" x="802.93" y="0">E</tspan><tspan class="cls-8" x="899.59" y="0">S</tspan></text>
          </g>
        </g>
      </g>
      <polygon class="cls-2" points="1143.15 285.7 1172.93 301.99 1172.93 291.2 1143.15 274.63 1113.38 291.2 1113.38 301.99 1143.15 285.7"/>
      <rect class="cls-3" x="1137.7" y="299" width="11.36" height="42"/>
    </g>
  </g>
</svg>